<svg xmlns="http://www.w3.org/2000/svg" width="100" height="26" viewBox="0 0 100 26">
  <defs>
    <style>
      .cls-1 {
        fill: #fc0;
        fill-rule: evenodd;
      }
    </style>
  </defs>
  <path id="donate-coffee-nav" class="cls-1" d="M1003,792h74a13,13,0,0,1,13,13h0a13,13,0,0,1-13,13h-74a13,13,0,0,1-13-13h0A13,13,0,0,1,1003,792Zm4.12,17.895a3.906,3.906,0,0,1-2.87-1.181c-0.79-.787-1.18-0.743-1.18-1.867v-8.784a1,1,0,0,1,1.01-1.013h12.53a5.338,5.338,0,0,1,2.72.717,5.262,5.262,0,0,1,1.96,1.961c0.48,0.83.72,0.737,0.72,1.721a5.336,5.336,0,0,1-.72,2.72,5.262,5.262,0,0,1-1.96,1.961,5.338,5.338,0,0,1-2.72.717h-1.35c0,1.124-.39,1.08-1.18,1.867a3.906,3.906,0,0,1-2.87,1.181h-4.09Zm9.49-10.146h-1.35v4.4h1.35a2.736,2.736,0,0,0,2.7-2.7c0-.731-0.27-0.364-0.8-0.9A2.611,2.611,0,0,0,1016.61,799.749Zm0.03,14.195a1.959,1.959,0,0,0,1.22-.422,2.2,2.2,0,0,0,.67-0.907,1.547,1.547,0,0,0,.11-0.949,0.475,0.475,0,0,0-.49-0.421h-16.63a0.473,0.473,0,0,0-.48.421,1.477,1.477,0,0,0,.11.949,2.2,2.2,0,0,0,.67.907,1.959,1.959,0,0,0,1.22.422h13.6Zm15.4-3.636a6.576,6.576,0,0,0,2.42-.442v-2.184a6.669,6.669,0,0,1-2.05.364,2.436,2.436,0,0,1,0-4.862,6.348,6.348,0,0,1,2.05.377v-2.184a6.6,6.6,0,0,0-2.42-.442c-2.83,0-4.54,1.768-4.54,4.68S1029.21,810.308,1032.04,810.308Zm7.54-.012c2.72,0,4.37-1.769,4.37-4.681s-1.65-4.68-4.37-4.68-4.37,1.768-4.37,4.68S1036.86,810.3,1039.58,810.3Zm0-2.172c-1.08,0-1.74-.949-1.74-2.509s0.66-2.509,1.74-2.509,1.73,0.949,1.73,2.509S1040.66,808.124,1039.58,808.124Zm11.79-4.888v-2.171h-6.38v9.1h2.5v-2.978h3.12v-2.2h-3.12v-1.755h3.88Zm7.09,0v-2.171h-6.39v9.1h2.5v-2.978h3.12v-2.2h-3.12v-1.755h3.89Zm7.08,0v-2.171h-6.38v9.1h6.38v-2.172h-3.88V806.6h3.12v-2.015h-3.12v-1.352h3.88Zm7.32,0v-2.171h-6.38v9.1h6.38v-2.172h-3.89V806.6h3.12v-2.015h-3.12v-1.352h3.89Z" transform="translate(-990 -792)"/>
</svg>
