<svg xmlns="http://www.w3.org/2000/svg" width="100" height="26" viewBox="0 0 100 26">
  <defs>
    <style>
      .cls-1 {
        fill: #fc0;
        fill-rule: evenodd;
      }
    </style>
  </defs>
  <path id="donate-paypal-nav" class="cls-1" d="M842,792h74a13,13,0,0,1,13,13h0a13,13,0,0,1-13,13H842a13,13,0,0,1-13-13h0A13,13,0,0,1,842,792Zm2.626,15.175a1.186,1.186,0,0,1,.709-0.918,5.141,5.141,0,0,1,1.5-.083H847.8q4.547-.082,5.839-3.795a6.127,6.127,0,0,0,.334-3.5,3.367,3.367,0,0,0-2.169-2.335,5.964,5.964,0,0,0-1.918-.417q-0.751-.084-3.545-0.084l-3.044.042a0.86,0.86,0,0,0-.563.188,0.763,0.763,0,0,0-.271.521L840,812.263a0.453,0.453,0,0,0,.125.417,0.52,0.52,0,0,0,.376.166h3.127a0.131,0.131,0,0,0,.125-0.083L844,811.1Q844.543,807.717,844.626,807.175Zm10.259-6q1.5,1.125,1,3.878-0.918,4.671-5.964,4.671h-0.166a1.752,1.752,0,0,0-.668.083,1.176,1.176,0,0,0-.375.751l-0.626,3.795a0.74,0.74,0,0,1-.25.438,0.671,0.671,0,0,1-.459.187h-2.669a0.394,0.394,0,0,1-.333-0.167,0.452,0.452,0,0,1-.084-0.375l1.126-7.089a0.4,0.4,0,0,1,.459-0.376h0.5a24.459,24.459,0,0,0,2.794-.125,7.588,7.588,0,0,0,3-1.126,6.249,6.249,0,0,0,2.211-3.086,14.027,14.027,0,0,0,.375-1.417q0-.084.042-0.084A0.121,0.121,0,0,1,854.885,801.17Zm9.728,9h3.862c2.431,0,4.043-1.821,4.043-4.551s-1.612-4.55-4.043-4.55h-3.862v9.1Zm2.484-2.172v-4.758h1.17c1.014,0,1.638.9,1.638,2.379s-0.624,2.379-1.638,2.379H867.1Zm10.647,2.3c2.717,0,4.368-1.769,4.368-4.681s-1.651-4.68-4.368-4.68-4.369,1.768-4.369,4.68S875.026,810.3,877.744,810.3Zm0-2.172c-1.079,0-1.742-.949-1.742-2.509s0.663-2.509,1.742-2.509,1.729,0.949,1.729,2.509S878.823,808.124,877.744,808.124Zm10.673-7.059v4.979h-0.053l-2.873-4.979h-2.34v9.1h2.418V805.16h0.039l2.874,5.006h2.353v-9.1h-2.418Zm9.165,9.1H900.2l-2.522-9.1h-3.628l-2.535,9.1h2.613l0.364-1.535h2.73Zm-2.588-3.693,0.832-3.484h0.039l0.832,3.484h-1.7Zm11.895-5.408H899.57v2.171h2.418v6.93h2.5v-6.93h2.4v-2.171Zm7.059,2.171v-2.171h-6.383v9.1h6.383v-2.172h-3.887V806.6h3.12v-2.015h-3.12v-1.352h3.887Z" transform="translate(-829 -792)"/>
</svg>
