<svg xmlns="http://www.w3.org/2000/svg" width="110" height="27.966" viewBox="0 0 118 30">
  <metadata><?xpacket begin="﻿" id="W5M0MpCehiHzreSzNTczkc9d"?>
<x:xmpmeta xmlns:x="adobe:ns:meta/" x:xmptk="Adobe XMP Core 5.6-c142 79.160924, 2017/07/13-01:06:39        ">
   <rdf:RDF xmlns:rdf="http://www.w3.org/1999/02/22-rdf-syntax-ns#">
      <rdf:Description rdf:about=""/>
   </rdf:RDF>
</x:xmpmeta>
                                                                                                    
                                                                                                    
                                                                                                    
                                                                                                    
                                                                                                    
                                                                                                    
                                                                                                    
                                                                                                    
                                                                                                    
                                                                                                    
                                                                                                    
                                                                                                    
                                                                                                    
                                                                                                    
                                                                                                    
                                                                                                    
                                                                                                    
                                                                                                    
                                                                                                    
                                                                                                    
                           
<?xpacket end="w"?></metadata>
<defs>
    <style>
      .cls-1 {
        fill: #9a8866;
        fill-rule: evenodd;
      }
    </style>
  </defs>
  <path id="EFTMKG" class="cls-1" d="M428.008,25.251V35.534c-1.371.889-4.169,1.473-7.023,1.473-6.239,0-9.848-3.7-9.848-10,0-6.281,3.861-10,10.38-10a14.171,14.171,0,0,1,5.707,1v5.419a12.619,12.619,0,0,0-4.588-.834c-3.106,0-4.924,1.64-4.924,4.419,0,3.113,1.483,4.724,4.309,4.724h0.251V25.251h5.736ZM414.09,36.729h-7.123l-4.01-7.115h-1.244v7.115h-6.262V28.058h-0.113L392.558,33H390.2l-2.78-4.947h-0.112v8.671h-6.263V17.275h5.982l4.353,7.754,4.352-7.754h5.982v6.976h1.328l3.842-6.976H413.7l-5.244,9.477Zm-39.186,0h-6.249V22.639h-8.08v2.807h6.275v5.419h-6.275v5.864h-6.246V17.275H379.78v5.364H374.9v14.09ZM339,17.275h14.2v5.364h-7.955v1.834h6.274v4.919h-6.274v1.973H353.2v5.364H339V17.275ZM324.6,40.293a2.837,2.837,0,0,1-5.207,0,20.383,20.383,0,0,0-4.4-6.168c-2.038-2.183-4.145-4.441-4.8-8.057a11.973,11.973,0,0,1,2.345-9.464,11.777,11.777,0,0,1,8.3-4.55c0.385-.036.776-0.054,1.161-0.054h0A11.873,11.873,0,0,1,334,23.7c0,5.058-2.545,7.783-5,10.419A20.388,20.388,0,0,0,324.6,40.293ZM322,17.916a4.229,4.229,0,0,0-4.281,4.174,4.15,4.15,0,0,0,2.113,3.595L319.6,31.136a0.972,0.972,0,0,0,.982.961h2.912a0.971,0.971,0,0,0,.982-0.961l-0.236-5.492a4.147,4.147,0,0,0,2.045-3.554A4.229,4.229,0,0,0,322,17.916Z" transform="translate(-310 -12)"/>
</svg>
