<svg xmlns="http://www.w3.org/2000/svg" width="30.003" height="12.658" viewBox="0 0 64 27">
  <defs>
    <style>
      .cls-1 {
        fill: #3cc;
        fill-rule: evenodd;
      }
    </style>
  </defs>
  <path id="pxh" class="cls-1" d="M957.641,887V876.331h-8.974V887h-2.988l-5.369-10.145v-7.245l4.973-9.61h3.384v9.965h8.974V860H966v27h-8.359Zm-11.962,0H936.09l-5.367-8.682L925.356,887h-9.634l9.238-13.727L916.162,860h9.326l5.235,8.518L935.958,860h9.325l-8.754,13.273Zm-25.7-8.323a20.2,20.2,0,0,1-5.138.591h-4.487V887H902V860h12.845c0.439,0,.862.014,1.278,0.035l6.627,13.238Zm-6.5-12.309h-3.123V872.9h3.123c3.343,0,4.751-.951,4.751-3.308C918.231,867.317,916.823,866.367,913.48,866.367Z" transform="translate(-902 -860)"/>
</svg>
